# xmcd
#
# Track frame offsets:
# 150
# 13340
# 26179
# 48867
# 63448
# 76757
# 93626
# 110280
# 124442
# 139571
# 152216
# 168164
# 181332
# 195458
#
# Disc length: 2772 seconds
#
#
# Revision: 0
# Processed by: cddbd v1.5.1PL0 Copyright (c) Steve Scherf et al.
# Submitted via: FreeRIP 2.35 
#
DISCID=b60ad20e
DTITLE=Rio negro e solimoes - america - America
DYEAR=2005
DGENRE=Country
TTITLE0=Na sola da bota
TTITLE1=De bem com a vida
TTITLE2=Frio da madrugada
TTITLE3=De sao paulo a belem
TTITLE4=Saudade pulou no peito
TTITLE5=lenha
TTITLE6=a gente se entrega
TTITLE7=o grito da galera
TTITLE8=movido pela emoção
TTITLE9=rodopiou
TTITLE10=esperando na jenela
TTITLE11=to doidão
TTITLE12=peão apoixonado
TTITLE13=bate o pé
EXTD=beto dj
EXTT0=
EXTT1=
EXTT2=
EXTT3=
EXTT4=
EXTT5=
EXTT6=
EXTT7=
EXTT8=
EXTT9=
EXTT10=
EXTT11=
EXTT12=
EXTT13=
PLAYORDER=
